<svg xmlns="http://www.w3.org/2000/svg" version="1.1" xmlns:xlink="http://www.w3.org/1999/xlink" xmlns:svgjs="http://svgjs.dev/svgjs" width="1500" height="325" viewBox="0 0 1500 325"><g transform="matrix(1,0,0,1,-0.908381745997076,-0.9893216781196372)"><svg viewBox="0 0 396 86" data-background-color="#ffffff" preserveAspectRatio="xMidYMid meet" height="325" width="1500" xmlns="http://www.w3.org/2000/svg" xmlns:xlink="http://www.w3.org/1999/xlink"><g id="tight-bounds" transform="matrix(1,0,0,1,0.23981278094322533,0.26178973636396563)"><svg viewBox="0 0 395.52 85.4762271115732" height="85.4762271115732" width="395.52"><g><svg viewBox="0 0 507.0253084144108 109.57375205639569" height="85.4762271115732" width="395.52"><g transform="matrix(1,0,0,1,150.90478841441083,0)"><svg viewBox="0 0 356.12052 109.57375205639569" height="109.57375205639569" width="356.12052"><g><path d="M0 109.574v-109.574h356.121v109.574z" fill="#1c4b82" stroke="transparent" stroke-width="0" rx="0%" data-fill-palette-color="tertiary"></path><path d="M3.283 106.29v-103.007h349.554v103.007z" fill="#ffffff" stroke="transparent" stroke-width="0" rx="0%" data-fill-palette-color="quaternary"></path><path d="M9.85 99.724v-89.874h336.421v89.874z" fill="#1c4b82" stroke="transparent" stroke-width="0" data-fill-palette-color="tertiary"></path></g><g transform="matrix(1,0,0,1,19.69974,19.69974)" id="textblocktransform"><svg viewBox="0 0 316.72104 70.1742720563957" height="70.1742720563957" width="316.72104" id="textblock"><g><svg viewBox="0 0 316.72104 39.31254144400228" height="39.31254144400228" width="316.72104"><g transform="matrix(1,0,0,1,0,0)"><svg width="316.72104" viewBox="3.15 -32.05 263.83000000000004 32.75" height="39.31254144400228" data-palette-color="#ffffff"><path d="M3.15 0.4L3.5-1.9Q5.7-2.3 6.4-3.08 7.1-3.85 7.1-6L7.1-6 7.15-27Q7.15-28.6 6.78-29.15 6.4-29.7 5.3-29.7L5.3-29.7Q4.8-29.7 4.3-29.65 3.8-29.6 3.6-29.6L3.6-29.6 3.5-29.8 3.85-32Q4.45-31.95 6.1-31.9 7.75-31.85 9.4-31.85L9.4-31.85Q10.95-31.85 12.93-31.93 14.9-32 15.7-32.05L15.7-32.05Q20.9-32.05 23.65-29.75 26.4-27.45 26.4-23.15L26.4-23.15Q26.4-20.35 24.78-17.82 23.15-15.3 20.5-13.75 17.85-12.2 14.95-12.2L14.95-12.2 10.75-12.2 10.65-7.3Q10.65-4.9 10.8-3.88 10.95-2.85 11.38-2.53 11.8-2.2 12.85-2.2L12.85-2.2Q13.7-2.2 14.48-2.25 15.25-2.3 15.55-2.35L15.55-2.35 15.65-2.15 15.2 0.15Q14.7 0.1 13.38 0.05 12.05 0 10.6 0L10.6 0Q8.6 0 5.93 0.15 3.25 0.3 3.15 0.4L3.15 0.4ZM16.15-14.4Q19.15-14.9 20.68-16.85 22.2-18.8 22.2-22.2L22.2-22.2Q22.2-26.05 19.93-27.83 17.65-29.6 12.8-29.6L12.8-29.6Q11.9-29.6 11.7-29.5 11.5-29.4 11.45-28.9L11.45-28.9Q11-22.55 10.85-15.15L10.85-15.15 16.15-14.4ZM36.15 0Q34.6 0 32.8 0.25 31 0.5 30.45 0.6L30.45 0.6 30.75-1.7Q33.05-2.15 33.85-3.03 34.65-3.9 34.65-6L34.65-6 34.7-27Q34.7-28.6 34.32-29.15 33.95-29.7 32.85-29.7L32.85-29.7Q32.35-29.7 31.85-29.65 31.35-29.6 31.15-29.6L31.15-29.6 31.05-29.8 31.4-32Q32-31.95 33.65-31.9 35.3-31.85 36.95-31.85L36.95-31.85Q38.65-31.85 40.42-31.93 42.2-32 42.85-32.05L42.85-32.05Q47.6-32.05 50.15-30.08 52.7-28.1 52.7-24.45L52.7-24.45Q52.7-21.95 51.17-19.95 49.65-17.95 46.9-16.75L46.9-16.75Q50.55-15.95 52.6-13.95 54.65-11.95 54.65-9.15L54.65-9.15Q54.65-6.6 53.02-4.38 51.4-2.15 48.7-0.83 46 0.5 42.9 0.5L42.9 0.5Q41.55 0.5 39.8 0.25L39.8 0.25Q36.95 0 36.15 0L36.15 0ZM38.5-17.55Q39.25-17.5 41.02-17.35 42.8-17.2 43.95-17.15L43.95-17.15Q43.95-17 45.25-17.68 46.55-18.35 47.6-19.78 48.65-21.2 48.65-23.6L48.65-23.6Q48.65-26.8 46.5-28.35 44.35-29.9 39.85-29.9L39.85-29.9Q39.35-29.9 39.17-29.68 39-29.45 38.95-28.75L38.95-28.75Q38.65-23.95 38.5-17.55L38.5-17.55ZM38.4-14.9L38.2-5.55Q38.2-3.65 39.5-2.85 40.8-2.05 43.9-2.05L43.9-2.05Q46.9-2.05 48.62-3.73 50.35-5.4 50.35-8.25L50.35-8.25Q50.35-10.95 48.65-12.68 46.95-14.4 43.6-15L43.6-15 38.4-14.9ZM70.95 0.45Q67.55 0.45 64.92-1.05 62.3-2.55 60.87-5.3 59.45-8.05 59.45-11.65L59.45-11.65Q59.45-15.55 61.22-18.68 63-21.8 66.07-23.58 69.15-25.35 72.95-25.35L72.95-25.35Q76.4-25.35 79.05-23.85 81.7-22.35 83.15-19.63 84.59-16.9 84.59-13.3L84.59-13.3Q84.59-9.4 82.82-6.28 81.05-3.15 77.92-1.35 74.8 0.45 70.95 0.45L70.95 0.45ZM72.15-1.95Q75.8-1.95 78.05-4.58 80.3-7.2 80.3-11.55L80.3-11.55Q80.3-14.85 79.22-17.35 78.15-19.85 76.17-21.2 74.2-22.55 71.59-22.55L71.59-22.55Q68.05-22.55 65.87-19.95 63.7-17.35 63.7-13L63.7-13Q63.7-9.7 64.75-7.2 65.8-4.7 67.72-3.33 69.65-1.95 72.15-1.95L72.15-1.95ZM100.19 0.45Q96.79 0.45 94.17-1.05 91.54-2.55 90.12-5.3 88.69-8.05 88.69-11.65L88.69-11.65Q88.69-15.55 90.47-18.68 92.24-21.8 95.32-23.58 98.39-25.35 102.19-25.35L102.19-25.35Q105.64-25.35 108.29-23.85 110.94-22.35 112.39-19.63 113.84-16.9 113.84-13.3L113.84-13.3Q113.84-9.4 112.07-6.28 110.29-3.15 107.17-1.35 104.04 0.45 100.19 0.45L100.19 0.45ZM101.39-1.95Q105.04-1.95 107.29-4.58 109.54-7.2 109.54-11.55L109.54-11.55Q109.54-14.85 108.47-17.35 107.39-19.85 105.42-21.2 103.44-22.55 100.84-22.55L100.84-22.55Q97.29-22.55 95.12-19.95 92.94-17.35 92.94-13L92.94-13Q92.94-9.7 93.99-7.2 95.04-4.7 96.97-3.33 98.89-1.95 101.39-1.95L101.39-1.95ZM122.04-20.85Q122.04-22.1 121.74-22.53 121.44-22.95 120.54-22.95L120.54-22.95 119.19-22.9 119.04-23.1 119.34-25Q119.89-25 121.34-24.95 122.79-24.9 124.14-24.9L124.14-24.9Q125.24-24.9 126.79-25.05 128.34-25.2 128.84-25.25L128.84-25.25 128.69-23.2Q127.14-22.95 126.59-22.48 126.04-22 125.99-20.9L125.99-20.9 125.54-4.65Q125.49-3.05 125.87-2.5 126.24-1.95 127.29-1.95L127.29-1.95Q127.89-1.95 128.39-2 128.89-2.05 129.04-2.1L129.04-2.1 129.14-1.9 128.79 0.1Q128.24 0.1 126.69 0.05 125.14 0 123.54 0L123.54 0 118.59 0.05 118.99-1.95Q120.89-2.15 121.44-2.7 121.99-3.25 121.99-4.95L121.99-4.95 122.04-20.85ZM126.69-12.95L133.69-19.9Q134.89-21.05 134.89-21.85L134.89-21.85Q134.89-22.9 132.44-23.05L132.44-23.05 132.34-23.25 132.64-25.15Q133.14-25.1 134.74-25 136.34-24.9 137.29-24.9L137.29-24.9Q138.59-24.9 139.77-24.95 140.94-25 141.34-25.05L141.34-25.05 141.54-24.75 141.24-22.95Q140.14-22.65 139.17-21.93 138.19-21.2 136.34-19.3L136.34-19.3 130.34-13.35 136.84-5.05Q138.29-3.25 139.42-2.5 140.54-1.75 141.94-1.7L141.94-1.7 142.14-1.45 141.89 0.1Q141.39 0.15 140.17 0.33 138.94 0.5 138.14 0.55L138.14 0.55Q135.94 0.55 133.54-2.75L133.54-2.75 126.64-12.3 126.69-12.95ZM152.59 0.45Q150.84 0.45 149.36 0.15 147.89-0.15 147.01-0.48 146.14-0.8 145.94-0.9L145.94-0.9 145.69-1.35Q145.74-1.6 145.86-2.48 145.99-3.35 146.11-4.93 146.24-6.5 146.24-8.1L146.24-8.1 148.49-8.3Q148.49-5.6 148.91-4.28 149.34-2.95 150.39-2.45 151.44-1.95 153.59-1.95L153.59-1.95Q155.99-1.95 157.46-3 158.94-4.05 158.94-5.8L158.94-5.8Q158.94-6.95 158.11-7.83 157.29-8.7 156.21-9.3 155.14-9.9 152.79-11.05L152.79-11.05Q149.59-12.6 147.86-14.1 146.14-15.6 146.14-17.95L146.14-17.95Q146.14-20.05 147.41-21.75 148.69-23.45 150.94-24.4 153.19-25.35 155.94-25.35L155.94-25.35Q157.59-25.35 159.04-25.15 160.49-24.95 161.34-24.73 162.19-24.5 162.39-24.4L162.39-24.4 162.59-24.05Q162.49-23.5 162.14-21.58 161.79-19.65 161.64-17.45L161.64-17.45 159.69-17.25 159.39-17.45Q159.39-17.6 159.44-18.07 159.49-18.55 159.49-19.25L159.49-19.25Q159.49-21.2 158.46-21.98 157.44-22.75 154.84-22.75L154.84-22.75Q152.74-22.75 151.36-21.78 149.99-20.8 149.99-19.3L149.99-19.3Q149.99-17.8 151.36-16.75 152.74-15.7 155.54-14.35L155.54-14.35Q157.99-13.2 159.46-12.35 160.94-11.5 161.99-10.2 163.04-8.9 163.04-7.2L163.04-7.2Q163.04-4.95 161.71-3.23 160.39-1.5 158.01-0.53 155.64 0.45 152.59 0.45L152.59 0.45ZM170.44 0.6Q169.09 0.6 168.36-0.23 167.64-1.05 167.64-2.25L167.64-2.25Q167.64-3.55 168.49-4.45 169.34-5.35 170.74-5.35L170.74-5.35Q172.09-5.35 172.84-4.53 173.59-3.7 173.59-2.5L173.59-2.5Q173.59-1.2 172.71-0.3 171.84 0.6 170.44 0.6L170.44 0.6ZM192.53 0.45Q186.88 0.45 183.58-2.8 180.28-6.05 180.28-11.65L180.28-11.65Q180.28-15.6 182.11-18.73 183.93-21.85 187.21-23.6 190.48-25.35 194.63-25.35L194.63-25.35Q196.13-25.35 197.76-25.15 199.38-24.95 200.51-24.7 201.63-24.45 201.93-24.4L201.93-24.4 202.13-24.1Q202.08-23.85 201.88-22.93 201.68-22 201.43-20.5 201.18-19 201.08-17.3L201.08-17.3 198.58-17.15Q198.58-17.3 198.63-17.85 198.68-18.4 198.68-19.1L198.68-19.1Q198.68-22.6 193.08-22.6L193.08-22.6Q189.18-22.6 186.93-20.03 184.68-17.45 184.68-12.95L184.68-12.95Q184.68-7.95 187.06-5 189.43-2.05 193.43-2.05L193.43-2.05Q196.08-2.05 197.66-3.48 199.23-4.9 199.93-7.95L199.93-7.95 202.43-8.15Q202.28-7.55 201.91-5.45 201.53-3.35 201.38-1.5L201.38-1.5 201.08-1.1Q200.78-1 199.66-0.63 198.53-0.25 196.63 0.1 194.73 0.45 192.53 0.45L192.53 0.45ZM217.83 0.45Q214.43 0.45 211.81-1.05 209.18-2.55 207.76-5.3 206.33-8.05 206.33-11.65L206.33-11.65Q206.33-15.55 208.11-18.68 209.88-21.8 212.96-23.58 216.03-25.35 219.83-25.35L219.83-25.35Q223.28-25.35 225.93-23.85 228.58-22.35 230.03-19.63 231.48-16.9 231.48-13.3L231.48-13.3Q231.48-9.4 229.71-6.28 227.93-3.15 224.81-1.35 221.68 0.45 217.83 0.45L217.83 0.45ZM219.03-1.95Q222.68-1.95 224.93-4.58 227.18-7.2 227.18-11.55L227.18-11.55Q227.18-14.85 226.11-17.35 225.03-19.85 223.06-21.2 221.08-22.55 218.48-22.55L218.48-22.55Q214.93-22.55 212.76-19.95 210.58-17.35 210.58-13L210.58-13Q210.58-9.7 211.63-7.2 212.68-4.7 214.61-3.33 216.53-1.95 219.03-1.95L219.03-1.95ZM250.08 0.7Q245.03-13 242.53-19.35L242.53-19.35 242.28-19.35Q242.08-16.95 241.55-10.4 241.03-3.85 241.03-3.2L241.03-3.2Q241.03-2.55 241.33-2.27 241.63-2 242.33-2L242.33-2 243.93-2 244.03-1.85 243.68 0.15Q243.23 0.15 241.95 0.08 240.68 0 239.43 0L239.43 0Q238.43 0 237.28 0.13 236.13 0.25 235.78 0.3L235.78 0.3 235.98-1.75Q237.28-1.9 237.83-2.53 238.38-3.15 238.58-4.7L238.58-4.7Q238.98-8.1 239.65-14.25 240.33-20.4 240.33-21.15L240.33-21.15Q240.33-22.15 239.55-22.63 238.78-23.1 236.88-23.2L236.88-23.2 236.73-23.45 237.08-25.1Q237.63-25.05 239.03-24.98 240.43-24.9 241.73-24.9L241.73-24.9Q242.83-24.9 243.75-24.95 244.68-25 244.98-25.05L244.98-25.05Q246.48-20.4 247.9-16.32 249.33-12.25 250.25-9.83 251.18-7.4 251.43-6.8L251.43-6.8 251.68-6.8Q252.23-8.2 254.15-13.35 256.08-18.5 258.33-24.95L258.33-24.95Q258.63-25 259.1-24.98 259.58-24.95 260.03-24.95L260.03-24.95Q260.58-24.9 261.63-24.9L261.63-24.9Q262.43-24.9 263.95-25 265.48-25.1 265.98-25.15L265.98-25.15 266.08-25 265.83-23.25Q264.08-23.05 263.38-22.58 262.68-22.1 262.68-21.1L262.68-21.1Q262.68-20.1 263.03-14.75 263.38-9.4 263.73-5.65L263.73-5.65Q263.98-3.4 264.38-2.7 264.78-2 265.73-2L265.73-2 266.88-2.05 266.98-1.9 266.63 0.1Q266.23 0.1 265.08 0.05 263.93 0 262.63 0L262.63 0Q261.33 0 259.68 0.15 258.03 0.3 257.93 0.3L257.93 0.3 258.13-1.75Q259.43-1.9 259.98-2.35 260.53-2.8 260.53-3.7L260.53-3.7Q260.53-4.6 260-10.85 259.48-17.1 259.28-19.35L259.28-19.35 259.03-19.35Q256.08-11.8 251.53 0.4L251.53 0.4 250.08 0.7Z" opacity="1" transform="matrix(1,0,0,1,0,0)" fill="#ffffff" class="wordmark-text-0" data-fill-palette-color="quaternary" id="text-0"></path></svg></g></svg></g><g transform="matrix(1,0,0,1,0,45.87912144400228)"><svg viewBox="0 0 316.72104 24.295150612393407" height="24.295150612393407" width="316.72104"><g transform="matrix(1,0,0,1,0,0)"><svg width="316.72104" viewBox="1 -37.35 659.64 50.6" height="24.295150612393407" data-palette-color="#ffffff"><path d="M1.65 0L1.65 0 1-1.9 5.4-2.95Q5.5-5.75 5.55-7.83 5.6-9.9 5.63-11.73 5.65-13.55 5.65-15.6L5.65-15.6Q5.65-18.4 5.58-22.03 5.5-25.65 5.4-29.75L5.4-29.75 1-31.05 1.6-33Q3.2-32.9 5.15-32.85 7.1-32.8 9.4-32.8L9.4-32.8Q11.55-32.8 13.33-32.88 15.1-32.95 16.8-33L16.8-33 17.35-31.05 12.9-29.75Q12.9-26.45 12.88-24.13 12.85-21.8 12.85-19.85 12.85-17.9 12.85-15.6L12.85-15.6Q12.85-13.15 12.85-9.8 12.85-6.45 12.9-2.95L12.9-2.95 17.35-1.9 16.8 0Q14.1-0.15 9.2-0.15L9.2-0.15Q6.9-0.15 5.05-0.1 3.2-0.05 1.65 0ZM35.75-1.9L35.05 0Q32.05-0.15 29.4-0.15L29.4-0.15Q27.7-0.15 25.98-0.1 24.25-0.05 23.4-0.05L23.4-0.05Q22.05-2.4 20.9-4.3 19.75-6.2 18.65-8 17.55-9.8 16.28-11.78 15-13.75 13.35-16.2L13.35-16.2Q14.3-16.9 15.5-17.6 16.7-18.3 17.75-18.93 18.8-19.55 19.15-19.95L19.15-19.95Q21.2-16.7 23-13.9 24.8-11.1 26.68-8.45 28.55-5.8 30.7-2.95L30.7-2.95 35.75-1.9ZM17.65-15.65L17.65-15.65 13.35-16.2Q16.45-18.95 18.5-21.13 20.55-23.3 22.13-25.43 23.7-27.55 25.25-30L25.25-30 21.2-31.05 21.8-33Q23.55-32.9 25.05-32.88 26.55-32.85 28.25-32.85L28.25-32.85Q31.65-32.85 34.25-33L34.25-33 34.85-31.05 30.5-30Q27-26.3 23.88-22.85 20.75-19.4 17.65-15.65ZM70.28-21.75L70.28-21.75Q73.13-21.75 74.95-19.6 76.78-17.45 76.98-14.05L76.98-14.05Q77.03-13.15 76.98-11.23 76.93-9.3 76.9-7.05 76.88-4.8 76.88-2.9L76.88-2.9 80.63-1.85 79.83 0Q78.53-0.1 76.88-0.13 75.23-0.15 73.63-0.15L73.63-0.15Q71.68-0.15 70.13-0.1 68.58-0.05 67.28 0L67.28 0 66.63-1.85 70.28-2.9Q70.33-4.6 70.38-5.78 70.43-6.95 70.45-8.13 70.48-9.3 70.43-10.9L70.43-10.9Q70.38-13.95 69.33-15.35 68.28-16.75 66.23-17.2L66.23-17.2Q64.03-15.75 63.03-13.65 62.03-11.55 62.08-9.65L62.08-9.65 60.23-11.85Q60.58-14.7 61.95-16.95 63.33-19.2 65.48-20.48 67.63-21.75 70.28-21.75ZM62.13-22L62.13-22Q62.13-20.35 62.13-19.33 62.13-18.3 62.1-17.28 62.08-16.25 61.98-14.55L61.98-14.55 62.18-2.9 65.83-1.85 65.18 0Q63.48-0.1 61.98-0.13 60.48-0.15 58.68-0.15L58.68-0.15Q56.73-0.15 55.3-0.1 53.88-0.05 52.43 0L52.43 0 51.63-1.85 55.38-2.9Q55.38-4.5 55.5-6.68 55.63-8.85 55.63-10.8L55.63-10.8Q55.63-12.25 55.6-13.23 55.58-14.2 55.48-15.28 55.38-16.35 55.18-18.1L55.18-18.1 51.28-19.05 50.68-20.95Q53.63-21.1 56.25-21.38 58.88-21.65 62.13-22ZM107.16-21.7L107.16-21.7Q110.86-21.7 113.33-20.15 115.81-18.6 117.03-16.1 118.26-13.6 118.26-10.7L118.26-10.7Q118.26-7.75 117.01-5.18 115.76-2.6 113.26-1.05 110.76 0.5 107.01 0.5L107.01 0.5Q103.26 0.5 100.71-1.07 98.16-2.65 96.86-5.25 95.56-7.85 95.56-10.8L95.56-10.8Q95.56-13.7 96.83-16.18 98.11-18.65 100.68-20.18 103.26-21.7 107.16-21.7ZM102.56-11.85L102.56-11.85Q102.56-9.35 103.13-7.1 103.71-4.85 104.86-3.45 106.01-2.05 107.61-2.05L107.61-2.05Q109.51-2.05 110.43-4.13 111.36-6.2 111.36-9.3L111.36-9.3Q111.36-11.8 110.78-14.03 110.21-16.25 109.08-17.68 107.96-19.1 106.31-19.1L106.31-19.1Q104.41-19.1 103.48-17.03 102.56-14.95 102.56-11.85ZM147.19-20.95L147.19-20.95 147.94-19.05 144.39-18Q144.99-16.15 145.46-14.73 145.94-13.3 146.44-12.03 146.94-10.75 147.54-9.28 148.14-7.8 149.04-5.85L149.04-5.85Q149.04-5.35 148.54-4.33 148.04-3.3 147.34-2.2 146.64-1.1 145.96-0.33 145.29 0.45 144.89 0.45L144.89 0.45Q143.44-3.25 142.19-6.23 140.94-9.2 139.66-12.03 138.39-14.85 136.89-18L136.89-18 133.09-19.05 133.89-20.95Q135.39-20.9 136.89-20.85 138.39-20.8 140.09-20.8L140.09-20.8Q144.49-20.8 147.19-20.95ZM152.14-21.2L152.14-21.2 154.84-21.15 154.39-15.85Q152.64-11.9 150.99-7.73 149.34-3.55 147.84 0.45L147.84 0.45 144.89 0.45Q145.94-1.9 146.99-4.73 148.04-7.55 149.01-10.5 149.99-13.45 150.81-16.2 151.64-18.95 152.14-21.2ZM150.89-13.75L154.84-21.15Q156.14-17.7 157.14-15.13 158.14-12.55 159.11-10.18 160.09-7.8 161.29-4.9L161.29-4.9Q161.29-4.4 160.79-3.5 160.29-2.6 159.54-1.7 158.79-0.8 158.06-0.18 157.34 0.45 156.89 0.45L156.89 0.45Q155.74-2.65 154.86-4.95 153.99-7.25 153.09-9.3 152.19-11.35 150.89-13.75L150.89-13.75ZM170.94-20.95L170.94-20.95 171.79-19.05 167.69-18Q166.19-14.65 164.86-11.68 163.54-8.7 162.31-5.78 161.09-2.85 159.79 0.45L159.79 0.45 156.89 0.45Q158.64-3.55 160.44-8.3 162.24-13.05 163.34-18L163.34-18 159.34-19.05 160.09-20.95Q163.19-20.8 165.74-20.8L165.74-20.8Q167.44-20.8 168.51-20.85 169.59-20.9 170.94-20.95ZM196.97-37.25L196.97-37.25Q196.92-28.75 196.94-19.93 196.97-11.1 197.12-2.9L197.12-2.9 201.07-1.85 200.12 0Q199.22-0.05 198.44-0.08 197.67-0.1 196.59-0.13 195.52-0.15 193.67-0.15L193.67-0.15Q192.02-0.15 190.94-0.13 189.87-0.1 189.02-0.08 188.17-0.05 187.12 0L187.12 0 186.17-1.85 190.12-2.9Q190.22-8.25 190.24-13.88 190.27-19.5 190.19-24.63 190.12-29.75 189.92-33.6L189.92-33.6 185.62-34.3 185.12-36.25Q186.27-36.35 188.22-36.45 190.17-36.55 192.49-36.75 194.82-36.95 196.97-37.25ZM226.04-21.85L226.04-21.85Q228.54-21.85 230.67-20.75 232.79-19.65 234.07-17.43 235.34-15.2 235.34-11.85L235.34-11.85Q234.24-11.65 232.44-11.5 230.64-11.35 228.49-11.28 226.34-11.2 224.19-11.2L224.19-11.2Q222.59-11.2 221.44-11.25 220.29-11.3 219.89-11.35L219.89-11.35 219.89-13.75Q220.44-13.75 221.57-13.75 222.69-13.75 224.09-13.8 225.49-13.85 226.82-13.95 228.14-14.05 229.04-14.2L229.04-14.2Q228.99-15.25 228.47-16.32 227.94-17.4 226.89-18.15 225.84-18.9 224.19-18.9L224.19-18.9Q223.19-17.95 222.59-16.28 221.99-14.6 221.99-12.4L221.99-12.4Q221.99-7.9 223.87-5.78 225.74-3.65 228.49-3.65L228.49-3.65Q231.29-3.65 234.39-5.65L234.39-5.65 235.49-3.35Q233.34-1.4 230.89-0.55 228.44 0.3 226.04 0.3L226.04 0.3Q223.24 0.3 220.82-0.93 218.39-2.15 216.92-4.6 215.44-7.05 215.44-10.7L215.44-10.7Q215.44-14.4 216.97-16.88 218.49-19.35 220.92-20.6 223.34-21.85 226.04-21.85ZM272.77-37.35L272.77-37.35Q272.77-34.15 272.75-30.35 272.72-26.55 272.72-21.7L272.72-21.7Q272.72-17.65 272.72-13.88 272.72-10.1 272.75-7.23 272.77-4.35 272.82-2.9L272.82-2.9 276.57-1.85 275.82 0Q274.52-0.1 273.27-0.1 272.02-0.1 270.22-0.1L270.22-0.1Q268.87-0.1 267.97-0.08 267.07-0.05 266.37 0L266.37 0Q266.32-1 266.2-1.88 266.07-2.75 265.97-3.7L265.97-3.7Q266.02-5.95 266.05-8.2 266.07-10.45 266.07-12.55L266.07-12.55Q266.07-14 266.07-15.4 266.07-16.8 266.02-18.3L266.02-18.3Q266.02-20.6 265.95-23.3 265.87-26 265.75-28.7 265.62-31.4 265.42-33.6L265.42-33.6 261.37-34.25 260.92-36.4Q261.77-36.4 263.27-36.5 264.77-36.6 266.55-36.73 268.32-36.85 269.97-37.02 271.62-37.2 272.77-37.35ZM259.72-21.8L259.72-21.8Q262.47-21.8 264.57-20.35 266.67-18.9 267.62-16.25L267.62-16.25 266.07-12Q266.07-13.75 265.35-15.18 264.62-16.6 263.57-17.53 262.52-18.45 261.57-18.65L261.57-18.65Q259.57-18.05 258.45-15.9 257.32-13.75 257.32-10.95L257.32-10.95Q257.32-7.15 258.77-5.3 260.22-3.45 262.07-3.45L262.07-3.45Q263.82-3.45 265.4-5.35 266.97-7.25 267.57-10.35L267.57-10.35 269.12-8.1Q267.77-4.45 265.45-2.05 263.12 0.35 259.72 0.35L259.72 0.35Q257.47 0.35 255.35-0.93 253.22-2.2 251.87-4.73 250.52-7.25 250.52-11.05L250.52-11.05Q250.52-14.6 251.92-17 253.32-19.4 255.45-20.6 257.57-21.8 259.72-21.8ZM296.65-9.15L296.65-9.15 299.05-8.55Q297.9-6.55 297.9-5.55L297.9-5.55Q297.9-4.2 299.35-3.9 300.8-3.6 302.8-3.5L302.8-3.5Q304.35-3.4 306-3.18 307.65-2.95 309.08-2.27 310.5-1.6 311.38-0.18 312.25 1.25 312.25 3.75L312.25 3.75Q312.25 6.2 310.93 8.38 309.6 10.55 306.85 11.9 304.1 13.25 299.9 13.25L299.9 13.25Q296.7 13.25 294.55 12.3 292.4 11.35 291.3 9.8 290.2 8.25 290.2 6.5L290.2 6.5Q290.2 4.3 291.88 2.23 293.55 0.15 296.95-1L296.95-1 297.9-0.45Q296.9 0.75 296.43 1.95 295.95 3.15 295.95 4.3L295.95 4.3Q295.95 6.55 297.78 8.1 299.6 9.65 302.85 9.65L302.85 9.65Q304.95 9.65 306.6 8.68 308.25 7.7 308.25 5.5L308.25 5.5Q308.25 3.9 306.38 3.08 304.5 2.25 299.8 2.25L299.8 2.25Q296.55 2.25 294.45 1 292.35-0.25 292.35-3.15L292.35-3.15Q293.9-5.15 294.8-6.45 295.7-7.75 296.65-9.15ZM299.3-19.45L299.3-19.45Q298.3-18.75 297.93-17.3 297.55-15.85 297.55-14.65L297.55-14.65Q297.55-13.35 298.15-11.95 298.75-10.55 299.8-9.6 300.85-8.65 302.25-8.65L302.25-8.65Q303.1-9.05 303.63-10.4 304.15-11.75 304.15-13.45L304.15-13.45Q304.15-14.75 303.45-16.13 302.75-17.5 301.65-18.48 300.55-19.45 299.3-19.45ZM300.65-21.55L300.65-21.55Q304.1-21.55 306.23-20.48 308.35-19.4 309.35-17.68 310.35-15.95 310.35-14L310.35-14Q310.35-11.9 309.25-10.13 308.15-8.35 305.95-7.28 303.75-6.2 300.45-6.2L300.45-6.2Q297.55-6.2 295.48-7.23 293.4-8.25 292.3-9.95 291.2-11.65 291.2-13.7L291.2-13.7Q291.2-15.8 292.28-17.57 293.35-19.35 295.45-20.45 297.55-21.55 300.65-21.55ZM315.3-21.15L315.3-21.15Q315.3-19.9 315.25-18.43 315.2-16.95 315.2-16.25L315.2-16.25Q312.75-17.3 310.93-17.85 309.1-18.4 307.35-18.6L307.35-18.6 305-20.5Q306.6-20.7 308.7-20.85 310.8-21 312.63-21.08 314.45-21.15 315.3-21.15ZM338.98-21.85L338.98-21.85Q341.48-21.85 343.61-20.75 345.73-19.65 347.01-17.43 348.28-15.2 348.28-11.85L348.28-11.85Q347.18-11.65 345.38-11.5 343.58-11.35 341.43-11.28 339.28-11.2 337.13-11.2L337.13-11.2Q335.53-11.2 334.38-11.25 333.23-11.3 332.83-11.35L332.83-11.35 332.83-13.75Q333.38-13.75 334.51-13.75 335.63-13.75 337.03-13.8 338.43-13.85 339.76-13.95 341.08-14.05 341.98-14.2L341.98-14.2Q341.93-15.25 341.41-16.32 340.88-17.4 339.83-18.15 338.78-18.9 337.13-18.9L337.13-18.9Q336.13-17.95 335.53-16.28 334.93-14.6 334.93-12.4L334.93-12.4Q334.93-7.9 336.81-5.78 338.68-3.65 341.43-3.65L341.43-3.65Q344.23-3.65 347.33-5.65L347.33-5.65 348.43-3.35Q346.28-1.4 343.83-0.55 341.38 0.3 338.98 0.3L338.98 0.3Q336.18 0.3 333.76-0.93 331.33-2.15 329.86-4.6 328.38-7.05 328.38-10.7L328.38-10.7Q328.38-14.4 329.91-16.88 331.43-19.35 333.86-20.6 336.28-21.85 338.98-21.85ZM396.99-21.75L396.99-21.75Q396.94-18.85 396.86-16.2 396.79-13.55 396.79-11.4L396.79-11.4Q396.79-9.55 396.86-7.15 396.94-4.75 396.99-2.9L396.99-2.9 400.99-1.85 400.14 0Q398.84-0.1 397.51-0.13 396.19-0.15 393.54-0.15L393.54-0.15Q391.09-0.15 389.71-0.1 388.34-0.05 386.79 0L386.79 0 385.99-1.85 390.24-2.9Q390.34-5.4 390.36-7.25 390.39-9.1 390.34-11.3L390.34-11.3Q390.34-12.45 390.31-13.35 390.29-14.25 390.24-15.38 390.19-16.5 390.04-18.25L390.04-18.25 386.49-18.9 385.74-20.8Q386.89-20.85 388.71-20.95 390.54-21.05 392.69-21.25 394.84-21.45 396.99-21.75ZM393.24-25.45L393.24-25.45Q391.64-25.45 390.49-26.65 389.34-27.85 389.34-29.6L389.34-29.6Q389.34-31.25 390.49-32.45 391.64-33.65 393.24-33.65L393.24-33.65Q394.84-33.65 395.99-32.45 397.14-31.25 397.14-29.6L397.14-29.6Q397.14-27.85 395.99-26.65 394.84-25.45 393.24-25.45ZM415.12-1.3L415.12-1.3Q415.52-3.2 415.79-4.48 416.07-5.75 416.27-7.25L416.27-7.25 418.77-7.25 419.57-3.35Q420.22-2.8 421.12-2.5 422.02-2.2 422.92-2.2L422.92-2.2Q424.17-2.2 425.14-2.8 426.12-3.4 426.12-4.65L426.12-4.65Q426.12-5.7 425.34-6.38 424.57-7.05 423.37-7.58 422.17-8.1 420.82-8.63 419.47-9.15 418.27-9.95 417.07-10.75 416.29-11.95 415.52-13.15 415.52-15L415.52-15Q415.52-17.55 416.77-19.03 418.02-20.5 420.04-21.15 422.07-21.8 424.32-21.8L424.32-21.8Q426.07-21.8 427.97-21.4 429.87-21 431.42-20.25L431.42-20.25Q431.02-18.5 430.69-17.15 430.37-15.8 430.12-14.5L430.12-14.5 427.52-14.55 426.87-17.95Q425.97-19.15 423.92-19.15L423.92-19.15Q422.82-19.15 421.89-18.65 420.97-18.15 420.97-17L420.97-17Q420.97-15.9 421.77-15.23 422.57-14.55 423.84-14.05 425.12-13.55 426.57-12.98 428.02-12.4 429.29-11.55 430.57-10.7 431.37-9.38 432.17-8.05 432.17-6L432.17-6Q432.17-3.6 430.87-2.18 429.57-0.75 427.42-0.13 425.27 0.5 422.77 0.5L422.77 0.5Q420.87 0.5 418.92 0.1 416.97-0.3 415.12-1.3ZM481.28-21.75L481.28-21.75Q481.38-19.95 481.5-18.5 481.63-17.05 481.68-16.05L481.68-16.05Q481.63-14.45 481.63-12.9 481.63-11.35 481.63-9.6L481.63-9.6Q481.63-7.9 481.63-6.13 481.63-4.35 481.68-2.18 481.73 0 481.78 2.93 481.83 5.85 481.88 9.85L481.88 9.85 486.88 11.05 486.18 13Q484.88 12.9 482.88 12.85 480.88 12.8 478.68 12.8L478.68 12.8Q476.23 12.8 474.68 12.85 473.13 12.9 471.68 13L471.68 13 470.93 11.05 474.88 10.05Q474.98 9.05 475 7.25 475.03 5.45 475.05 3.38 475.08 1.3 475.08-0.48 475.08-2.25 475.08-3.15L475.08-3.15Q475.08-5.45 475.05-7.55 475.03-9.65 474.95-12.15 474.88-14.65 474.68-18.15L474.68-18.15 470.48-18.9 469.93-20.95Q470.78-21 472.23-21.05 473.68-21.1 475.33-21.18 476.98-21.25 478.55-21.4 480.13-21.55 481.28-21.75ZM488.58-21.8L488.58-21.8Q491.43-21.8 493.35-20.28 495.28-18.75 496.23-16.32 497.18-13.9 497.18-11.2L497.18-11.2Q497.18-8.35 496.08-5.73 494.98-3.1 492.78-1.43 490.58 0.25 487.23 0.25L487.23 0.25Q484.48 0.25 482.4-1.3 480.33-2.85 478.83-5.25L478.83-5.25 479.88-7.35Q480.63-5.75 482.3-4.5 483.98-3.25 485.93-3.25L485.93-3.25Q487.43-3.25 488.43-4.28 489.43-5.3 489.93-6.95 490.43-8.6 490.43-10.4L490.43-10.4Q490.43-12.2 489.93-13.93 489.43-15.65 488.38-16.85 487.33-18.05 485.68-18.25L485.68-18.25Q484.98-18.1 484-17.05 483.03-16 482.33-14.45 481.63-12.9 481.63-11.2L481.63-11.2 480.23-14.55Q480.68-16.95 481.95-18.55 483.23-20.15 484.98-20.98 486.73-21.8 488.58-21.8ZM524.35-21.7L524.35-21.7Q528.05-21.7 530.53-20.15 533-18.6 534.23-16.1 535.45-13.6 535.45-10.7L535.45-10.7Q535.45-7.75 534.2-5.18 532.95-2.6 530.45-1.05 527.95 0.5 524.2 0.5L524.2 0.5Q520.45 0.5 517.9-1.07 515.35-2.65 514.05-5.25 512.75-7.85 512.75-10.8L512.75-10.8Q512.75-13.7 514.03-16.18 515.3-18.65 517.88-20.18 520.45-21.7 524.35-21.7ZM519.75-11.85L519.75-11.85Q519.75-9.35 520.33-7.1 520.9-4.85 522.05-3.45 523.2-2.05 524.8-2.05L524.8-2.05Q526.7-2.05 527.63-4.13 528.55-6.2 528.55-9.3L528.55-9.3Q528.55-11.8 527.98-14.03 527.4-16.25 526.28-17.68 525.15-19.1 523.5-19.1L523.5-19.1Q521.6-19.1 520.68-17.03 519.75-14.95 519.75-11.85ZM564.38-20.95L564.38-20.95 565.13-19.05 561.58-18Q562.18-16.15 562.66-14.73 563.13-13.3 563.63-12.03 564.13-10.75 564.73-9.28 565.33-7.8 566.23-5.85L566.23-5.85Q566.23-5.35 565.73-4.33 565.23-3.3 564.53-2.2 563.83-1.1 563.16-0.33 562.48 0.45 562.08 0.45L562.08 0.45Q560.63-3.25 559.38-6.23 558.13-9.2 556.86-12.03 555.58-14.85 554.08-18L554.08-18 550.28-19.05 551.08-20.95Q552.58-20.9 554.08-20.85 555.58-20.8 557.28-20.8L557.28-20.8Q561.68-20.8 564.38-20.95ZM569.33-21.2L569.33-21.2 572.03-21.15 571.58-15.85Q569.83-11.9 568.18-7.73 566.53-3.55 565.03 0.45L565.03 0.45 562.08 0.45Q563.13-1.9 564.18-4.73 565.23-7.55 566.21-10.5 567.18-13.45 568.01-16.2 568.83-18.95 569.33-21.2ZM568.08-13.75L572.03-21.15Q573.33-17.7 574.33-15.13 575.33-12.55 576.31-10.18 577.28-7.8 578.48-4.9L578.48-4.9Q578.48-4.4 577.98-3.5 577.48-2.6 576.73-1.7 575.98-0.8 575.26-0.18 574.53 0.45 574.08 0.45L574.08 0.45Q572.93-2.65 572.06-4.95 571.18-7.25 570.28-9.3 569.38-11.35 568.08-13.75L568.08-13.75ZM588.13-20.95L588.13-20.95 588.98-19.05 584.88-18Q583.38-14.65 582.06-11.68 580.73-8.7 579.51-5.78 578.28-2.85 576.98 0.45L576.98 0.45 574.08 0.45Q575.83-3.55 577.63-8.3 579.43-13.05 580.53-18L580.53-18 576.53-19.05 577.28-20.95Q580.38-20.8 582.93-20.8L582.93-20.8Q584.63-20.8 585.71-20.85 586.78-20.9 588.13-20.95ZM614.21-21.85L614.21-21.85Q616.71-21.85 618.84-20.75 620.96-19.65 622.24-17.43 623.51-15.2 623.51-11.85L623.51-11.85Q622.41-11.65 620.61-11.5 618.81-11.35 616.66-11.28 614.51-11.2 612.36-11.2L612.36-11.2Q610.76-11.2 609.61-11.25 608.46-11.3 608.06-11.35L608.06-11.35 608.06-13.75Q608.61-13.75 609.74-13.75 610.86-13.75 612.26-13.8 613.66-13.85 614.99-13.95 616.31-14.05 617.21-14.2L617.21-14.2Q617.16-15.25 616.64-16.32 616.11-17.4 615.06-18.15 614.01-18.9 612.36-18.9L612.36-18.9Q611.36-17.95 610.76-16.28 610.16-14.6 610.16-12.4L610.16-12.4Q610.16-7.9 612.04-5.78 613.91-3.65 616.66-3.65L616.66-3.65Q619.46-3.65 622.56-5.65L622.56-5.65 623.66-3.35Q621.51-1.4 619.06-0.55 616.61 0.3 614.21 0.3L614.21 0.3Q611.41 0.3 608.99-0.93 606.56-2.15 605.09-4.6 603.61-7.05 603.61-10.7L603.61-10.7Q603.61-14.4 605.14-16.88 606.66-19.35 609.09-20.6 611.51-21.85 614.21-21.85ZM649.04-21.7L649.04-21.7Q649.09-20.55 649.19-19 649.29-17.45 649.39-16.18 649.49-14.9 649.49-14.45L649.49-14.45 649.84-3.1 654.79-1.85 654.04 0Q653.19-0.05 651.79-0.08 650.39-0.1 648.89-0.13 647.39-0.15 646.19-0.15L646.19-0.15Q644.64-0.15 642.84-0.1 641.04-0.05 639.54 0L639.54 0 638.79-1.85 642.84-2.9Q642.84-5.15 642.84-6.93 642.84-8.7 642.84-10.8L642.84-10.8Q642.84-11.95 642.82-12.93 642.79-13.9 642.74-15.13 642.69-16.35 642.54-18.15L642.54-18.15 639.14-18.7 638.44-20.8Q639.59-20.85 641.52-20.95 643.44-21.05 645.49-21.25 647.54-21.45 649.04-21.7ZM655.74-21.8L655.74-21.8Q657.14-21.8 658.34-21.28 659.54-20.75 660.64-19.6L660.64-19.6Q660.34-18.1 660.09-17 659.84-15.9 659.52-14.83 659.19-13.75 658.74-12.2L658.74-12.2 655.94-12.2Q655.59-14.05 654.92-15.43 654.24-16.8 653.09-17.3L653.09-17.3Q651.84-16.5 650.72-14.33 649.59-12.15 649.59-8.55L649.59-8.55 647.64-11.45Q648.04-14.25 649.19-16.6 650.34-18.95 652.02-20.38 653.69-21.8 655.74-21.8Z" opacity="1" transform="matrix(1,0,0,1,0,0)" fill="#ffffff" class="slogan-text-1" data-fill-palette-color="quaternary" id="text-1"></path></svg></g></svg></g></svg></g></svg></g><g transform="matrix(1,0,0,1,0,6.296454037228415)"><svg viewBox="0 0 144.33820841441084 96.98084398193886" height="96.98084398193886" width="144.33820841441084"><g><svg xmlns="http://www.w3.org/2000/svg" xmlns:xlink="http://www.w3.org/1999/xlink" version="1.1" x="0" y="0" viewBox="-345.765 275.279 99.42178716439025 66.80149999999998" enable-background="new -346 256 100 100" xml:space="preserve" height="96.98084398193886" width="144.33820841441084" class="icon-icon-0" data-fill-palette-color="accent" id="icon-0"><g fill="#1c4b82" data-fill-palette-color="accent"><path d="M-251.339 331.136C-252.414 331.047-261.924 329.962-264.485 319.07-265.678 314-265.263 307.109-265.256 306.998-265.227 306.551-265.31 301.812-265.937 299.64-268.858 289.499-284.125 283.769-301.982 287.309-305.304 287.967-308.689 288.692-311.968 289.538-311.606 292.932-311.492 299.464-315.129 303.782-318.206 307.438-324.657 308.546-325.383 308.661A2.15 2.15 0 0 1-327.837 306.875 2.144 2.144 0 0 1-326.053 304.421C-324.514 304.172-320.15 303.08-318.411 301.015-316.248 298.446-315.977 294.421-316.114 291.569-316.206 289.633-316.161 275.279-316.161 275.279L-324.298 281.473A17.2 17.2 0 0 0-330.412 280.361C-332.521 280.361-334.53 280.734-336.359 281.407L-343.527 275.391V286.83C-344.938 288.86-345.765 291.232-345.765 293.782-345.765 299.774-341.271 304.844-335.07 306.57-335.281 308.61-335.053 310.867-334.277 313.387-333.22 316.817-330.35 319.639-326.325 321.736V336.778A5.302 5.302 0 0 0-315.72 336.778V325.148C-310.604 326.045-304.879 326.199-299.102 325.508L-308 332.675A5.303 5.303 0 0 0-301.348 340.934L-285.443 328.122C-285.363 328.059-285.305 327.984-285.231 327.915V336.695A5.302 5.302 0 0 0-274.627 336.695V322.9C-270.609 337.016-258.236 341.541-252.062 341.925-251.946 341.933-251.833 341.937-251.718 341.937-248.907 341.937-246.563 339.76-246.357 336.916-246.146 333.958-248.382 331.379-251.339 331.136" fill="#1c4b82" data-fill-palette-color="accent"></path></g></svg></g></svg></g></svg></g><defs></defs></svg><rect width="395.52" height="85.4762271115732" fill="none" stroke="none" visibility="hidden"></rect></g></svg></g></svg>